<?xml version="1.0"?>
<svg xmlns="http://www.w3.org/2000/svg" xmlns:xlink="http://www.w3.org/1999/xlink" xmlns:svgjs="http://svgjs.com/svgjs" version="1.1" width="512" height="512" x="0" y="0" viewBox="0 0 479 479.99979" style="enable-background:new 0 0 512 512" xml:space="preserve"><g><linearGradient xmlns="http://www.w3.org/2000/svg" id="a" gradientUnits="userSpaceOnUse" x1="25.562375" x2="449.770375" y1="473.57579" y2="49.36779"><stop stop-opacity="1" stop-color="#41df89" offset="0"/><stop stop-opacity="1" stop-color="#00e9ff" offset="0.4942084942084942"/><stop stop-opacity="1" stop-color="#00e9ff" offset="0.6023166023166023"/><stop stop-opacity="1" stop-color="#009dff" offset="0.9961389961389961"/></linearGradient><path xmlns="http://www.w3.org/2000/svg" d="m48.523438 176c-22.082032.027344-39.976563 17.917969-40 40v224c.023437 22.082031 17.917968 39.972656 40 40h352c22.078124-.027344 39.972656-17.917969 40-40v-224c-.027344-22.082031-17.921876-39.972656-40-40h-64v-16c0-13.253906-10.746094-24-24-24-13.257813 0-24 10.746094-24 24v16h-48v-16c0-13.253906-10.746094-24-24-24-13.257813 0-24 10.746094-24 24v16h-40v-16c0-13.253906-10.746094-24-24-24-13.257813 0-24 10.746094-24 24v16zm376 40v224c0 13.253906-10.746094 24-24 24h-352c-13.257813 0-24-10.746094-24-24v-224c0-13.253906 10.742187-24 24-24h352c13.253906 0 24 10.746094 24 24zm-120-56c0-4.417969 3.582031-8 8-8 4.417968 0 8 3.582031 8 8v16h-16zm-96 0c0-4.417969 3.582031-8 8-8 4.417968 0 8 3.582031 8 8v16h-16zm-88 0c0-4.417969 3.582031-8 8-8 4.417968 0 8 3.582031 8 8v16h-16zm-80 72v192c0 13.253906 10.742187 24 24 24h320c13.253906 0 24-10.746094 24-24v-192c0-13.253906-10.746094-24-24-24h-320c-13.257813 0-24 10.746094-24 24zm352 0v192c0 4.417969-3.582032 8-8 8h-320c-4.417969 0-8-3.582031-8-8v-192c0-4.417969 3.582031-8 8-8h320c4.417968 0 8 3.582031 8 8zm-304 24h-16v-16h16zm32 0h-16v-16h16zm32 0h-16v-16h16zm32 0h-16v-16h16zm32 0h-16v-16h16zm32 0h-16v-16h16zm32 0h-16v-16h16zm32 0h-16v-16h16zm32 0h-16v-16h16zm32 0h-16v-16h16zm-288 32h-16v-16h16zm32 0h-16v-16h16zm32 0h-16v-16h16zm32 0h-16v-16h16zm32 0h-16v-16h16zm32 0h-16v-16h16zm32 0h-16v-16h16zm32 0h-16v-16h16zm32 0h-16v-16h16zm32 0h-16v-16h16zm-288 32h-16v-16h16zm32 0h-16v-16h16zm32 0h-16v-16h16zm160 0h-16v-16h16zm32 0h-16v-16h16zm32 0h-16v-16h16zm-288 32h-16v-16h16zm32 0h-16v-16h16zm32 0h-16v-16h16zm160 0h-16v-16h16zm32 0h-16v-16h16zm32 0h-16v-16h16zm-288 32h-16v-16h16zm32 0h-16v-16h16zm32 0h-16v-16h16zm32 0h-16v-16h16zm16-16h16v16h-16zm32 0h16v16h-16zm32 0h16v16h-16zm48 16h-16v-16h16zm32 0h-16v-16h16zm32 0h-16v-16h16zm-288 32h-16v-16h16zm32 0h-16v-16h16zm32 0h-16v-16h16zm32 0h-16v-16h16zm16-16h16v16h-16zm32 0h16v16h-16zm32 0h16v16h-16zm48 16h-16v-16h16zm32 0h-16v-16h16zm32 0h-16v-16h16zm-184-64h64c13.253906 0 24-10.746094 24-24s-10.746094-24-24-24h-64c-13.257813 0-24 10.746094-24 24s10.742187 24 24 24zm0-32h64c4.417968 0 8 3.582031 8 8s-3.582032 8-8 8h-64c-4.417969 0-8-3.582031-8-8s3.582031-8 8-8zm-16.34375-195.449219c1.570312 0 3.136718-.15625 4.679687-.464843l8.613281-1.71875c11.046875-2.238282 19-11.929688 19.042969-23.199219v-36.921875l48-12v10.640625l-20.953125 4.191406c-8.335938 1.625-15.164062 7.582031-17.898438 15.621094-2.738281 8.039062-.960937 16.929687 4.65625 23.296875 5.617188 6.371094 14.210938 9.246094 22.53125 7.539062l8.621094-1.726562c11.050782-2.234375 19.007813-11.929688 19.042969-23.199219v-78.609375c0-2.464844-1.136719-4.789062-3.078125-6.308594-1.945312-1.515625-4.476562-2.050781-6.867188-1.453125l-64 16c-3.554687.894531-6.046874 4.09375-6.046874 7.761719v49.441406l-20.960938 4.191406c-11.945312 2.378907-20.140625 13.429688-18.949219 25.550782 1.191407 12.121094 11.382813 21.363281 23.566407 21.367187zm80.34375-37.96875c-.007813 3.660157-2.589844 6.8125-6.175782 7.539063l-8.625 1.726562c-2.261718.453125-4.605468-.132812-6.386718-1.59375-1.78125-1.460937-2.816407-3.644531-2.8125-5.949218.007812-3.664063 2.59375-6.8125 6.183593-7.535157l17.816407-3.570312zm0-52.796875-48 12v-15.539062l48-12zm-81.816407 59.535156 17.816407-3.558593v9.375c-.007813 3.664062-2.59375 6.816406-6.183594 7.542969l-8.625 1.71875c-2.257813.453124-4.597656-.132813-6.378906-1.59375-1.78125-1.457032-2.8125-3.640626-2.8125-5.941407.007812-3.664062 2.589843-6.816406 6.183593-7.542969zm201.480469 42.679688c1.566406 0 3.132812-.15625 4.671875-.464844l8.621094-1.726562c11.050781-2.234375 19.007812-11.929688 19.042969-23.199219v-44.609375l33.597656-6.710938c4.332031-.886718 7.128906-5.113281 6.246094-9.445312-.882813-4.332031-5.113282-7.128906-9.445313-6.242188l-40 8c-3.726563.757813-6.398437 4.035157-6.398437 7.839844v25.445313l-20.953126 4.191406c-11.945312 2.378906-20.140624 13.429687-18.949218 25.554687 1.191406 12.121094 11.382812 21.363282 23.566406 21.367188zm-1.480469-31.199219 17.816407-3.601562v9.382812c-.007813 3.660157-2.589844 6.8125-6.175782 7.539063l-8.625 1.726562c-2.261718.453125-4.605468-.132812-6.386718-1.59375-1.78125-1.460937-2.816407-3.644531-2.8125-5.949218.023437-3.652344 2.605468-6.785157 6.183593-7.503907zm-350.527343 43.75c1.570312 0 3.136718-.15625 4.679687-.464843l8.613281-1.6875c11.046875-2.238282 19-11.929688 19.042969-23.199219v-27.429688l25.941406-6.480469c4.289063-1.074218 6.894531-5.421874 5.820313-9.710937-1.074219-4.285156-5.417969-6.890625-9.707032-5.816406l-22.046874 5.519531v-8.722656l33.597656-6.71875c4.332031-.882813 7.125-5.109375 6.242187-9.441406-.882812-4.328126-5.109375-7.121094-9.441406-6.238282l-40 8c-3.726563.761719-6.398437 4.039063-6.398437 7.839844v33.441406l-20.960938 4.160156c-11.945312 2.375-20.140625 13.425782-18.949219 25.550782 1.191407 12.121094 11.382813 21.363281 23.566407 21.367187zm-1.472657-31.199219 17.816407-3.589843v9.375c-.007813 3.664062-2.59375 6.816406-6.183594 7.542969l-8.625 1.71875c-4.164063.832031-8.214844-1.871094-9.042969-6.035157-.832031-4.164062 1.871094-8.210937 6.035156-9.042969zm0 0" fill="url(#a)" data-original="url(#a)" style=""/></g></svg>
